PathFileType	4	(X/Y/Z)	s03c0102.trc
DataRate	CameraRate	NumFrames	NumMarkers	Units	OrigDataRate	OrigDataStartFrame	OrigNumFrames
200	200	4	52	mm	200	250	2000
Frame#	Time	racr			lacr			c7			jug			rlel			rdr			llel			ldr			s2			lic			ric			lasi			rasi			rpsi			lpsi			rgt			lgt			rth1			rth2			rth3			rth4			rlfc			rmfc			rsh1			rsh2			rsh3			rsh4			rlmal			rmmal			rcal			rtoe			rmt5			rmt1			lth1			lth2			lth4			lth3			llfc			lmfc			lsh1			lsh2			lsh3			lsh4			llmal			lmmal			lcal			ltoe			lmt1			lmt5			SBIKE			LBIKE			RBIKE			
		X1	Y1	Z1	X2	Y2	Z2	X3	Y3	Z3	X4	Y4	Z4	X5	Y5	Z5	X6	Y6	Z6	X7	Y7	Z7	X8	Y8	Z8	X9	Y9	Z9	X10	Y10	Z10	X11	Y11	Z11	X12	Y12	Z12	X13	Y13	Z13	X14	Y14	Z14	X15	Y15	Z15	X16	Y16	Z16	X17	Y17	Z17	X18	Y18	Z18	X19	Y19	Z19	X20	Y20	Z20	X21	Y21	Z21	X22	Y22	Z22	X23	Y23	Z23	X24	Y24	Z24	X25	Y25	Z25	X26	Y26	Z26	X27	Y27	Z27	X28	Y28	Z28	X29	Y29	Z29	X30	Y30	Z30	X31	Y31	Z31	X32	Y32	Z32	X33	Y33	Z33	X34	Y34	Z34	X35	Y35	Z35	X36	Y36	Z36	X37	Y37	Z37	X38	Y38	Z38	X39	Y39	Z39	X40	Y40	Z40	X41	Y41	Z41	X42	Y42	Z42	X43	Y43	Z43	X44	Y44	Z44	X45	Y45	Z45	X46	Y46	Z46	X47	Y47	Z47	X48	Y48	Z48	X49	Y49	Z49	X50	Y50	Z50	X51	Y51	Z51	X52	Y52	Z52	
250	1.2500	489.560153	1395.546357	-81.162689	470.480281	1402.410125	-393.680076	430.119269	1462.253722	-234.084321	452.550674	1294.410556	-232.417075	536.795578	1137.216728	19.398332	744.982574	941.460106	-40.356683	542.733344	1148.942633	-468.808696	748.325391	925.327228	-426.464048	-105.918373	1215.029461	-240.246610	86.054646	1202.425627	-418.437933	71.774145	1224.091227	-53.610744	86.492226	1123.988199	-386.649690	72.025020	1162.643989	-91.173703	-72.313878	1261.974052	-196.585860	-63.326524	1257.473781	-278.237629	-5.855685	1151.339130	-33.632076	2.734121	1103.533588	-437.720549	111.349817	1064.209692	-5.741456	200.378443	1061.496264	-2.676634	274.747489	1017.601346	-1.515039	210.791001	1093.792340	-18.330276	395.332146	952.816351	-20.664322	409.002570	942.381344	-145.272558	333.594668	797.392762	-11.332383	318.331842	712.168762	-32.512350	260.658123	645.391452	-40.844650	345.099560	704.298481	-58.760988	203.131088	525.960073	-71.506653	226.876942	546.020033	-157.961276	141.919654	473.311525	-115.864718	449.860351	506.791076	-115.354452	334.543679	473.012885	-46.535767	358.266042	494.030893	-161.151502	71.273871	960.376166	-465.981800	132.362710	898.935308	-473.027861	164.136791	917.392826	-469.315250	156.720161	813.315057	-465.122967	236.903143	709.640475	-454.848153	250.327405	699.995306	-331.806149	148.979866	559.565429	-468.050212	137.816504	478.117347	-447.244756	81.423821	407.248226	-433.179807	167.820534	468.214508	-423.631410	24.414810	295.498206	-405.669783	64.259420	306.160978	-318.457966	-45.390280	261.524041	-353.422352	256.724752	199.163821	-358.363617	164.276382	212.123203	-314.206423	134.071121	196.505024	-427.957467	-215.598028	944.459554	-232.376801	-9.840828	80.760219	-433.353778	-9.360762	80.841762	-32.830490	
251	1.2550	489.553564	1395.544241	-81.185187	470.460491	1402.403056	-393.678626	430.125288	1462.243856	-234.081240	452.550674	1294.410556	-232.417075	536.814797	1137.200500	19.433072	745.000119	941.454068	-40.339253	542.721046	1148.923952	-468.826114	748.324883	925.323285	-426.460625	-105.925797	1215.028509	-240.226369	86.048382	1202.422784	-418.425965	71.797570	1224.087308	-53.612521	86.487679	1123.992192	-386.637730	72.025051	1162.640954	-91.137683	-72.312343	1261.967417	-196.574980	-63.321349	1257.463294	-278.236059	-5.841348	1151.328615	-33.634457	2.725980	1103.549607	-437.716812	111.343820	1064.190862	-5.745722	200.365279	1061.486841	-2.679935	274.738848	1017.591933	-1.525385	210.783476	1093.796730	-18.314076	395.339058	952.812368	-20.658044	409.002196	942.383201	-145.285798	333.602860	797.390579	-11.338838	318.336325	712.165135	-32.507535	260.668284	645.396231	-40.867530	345.099548	704.285548	-58.776982	203.140236	525.958414	-71.499763	226.877970	546.018748	-157.953207	141.952983	473.254311	-115.914502	449.855057	506.790513	-115.360641	334.560320	473.012231	-46.537585	358.269710	494.027887	-161.140888	71.281674	960.380674	-465.974510	132.366328	898.936475	-473.035329	164.133597	917.405307	-469.319544	156.727498	813.324973	-465.135824	236.905034	709.640962	-454.848271	250.332584	699.991129	-331.818237	148.972546	559.565148	-468.063733	137.817247	478.119263	-447.254057	81.424488	407.256500	-433.170810	167.812876	468.225400	-423.627551	24.409434	295.510403	-405.679542	64.417469	306.048982	-318.491298	-45.380502	261.519503	-353.421064	256.737794	199.168469	-358.360238	164.258509	212.101442	-314.187768	134.073777	196.489767	-427.957297	-215.594766	944.448008	-232.378253	-9.834666	80.753639	-433.357437	-9.352391	80.843935	-32.838031	
252	1.2600	489.569975	1395.516962	-81.193215	470.469330	1402.402462	-393.659409	430.126479	1462.240561	-234.081124	452.549834	1294.399005	-232.410770	536.834059	1137.193233	19.441082	744.993375	941.447458	-40.341689	542.708468	1148.923168	-468.816403	748.323886	925.325654	-426.462309	-105.923724	1215.027929	-240.222194	86.038920	1202.428320	-418.386305	71.799745	1224.079872	-53.611128	86.488186	1123.996213	-386.638712	72.022353	1162.655500	-91.135016	-72.312470	1261.955063	-196.578445	-63.336605	1257.463471	-278.211551	-5.819392	1151.334148	-33.628862	2.727611	1103.549157	-437.711518	111.322553	1064.204057	-5.744149	200.382471	1061.488000	-2.671558	274.759449	1017.603749	-1.520335	210.783547	1093.794764	-18.315799	395.348270	952.817529	-20.653430	409.012929	942.386845	-145.296743	333.602641	797.389941	-11.334201	318.341357	712.159347	-32.497692	260.679132	645.392344	-40.856344	345.111375	704.285692	-58.790773	203.139213	525.955676	-71.498533	226.878016	546.018687	-157.953237	141.936415	473.316505	-115.855419	449.861377	506.791247	-115.360425	334.572455	473.023209	-46.526019	358.277418	494.025072	-161.141938	71.280818	960.381359	-465.972704	132.374625	898.942227	-473.033243	164.129403	917.398598	-469.310472	156.725033	813.322383	-465.122682	236.920937	709.637845	-454.840444	250.333446	699.999702	-331.822704	148.974418	559.580052	-468.070517	137.825633	478.120184	-447.240705	81.435955	407.267069	-433.177862	167.825849	468.219525	-423.629771	24.427282	295.522520	-405.704690	64.233921	306.184162	-318.429776	-45.380092	261.526432	-353.416541	256.744976	199.166217	-358.359423	164.267150	212.113059	-314.197540	134.070656	196.500281	-427.959349	-215.597784	944.461867	-232.369237	-9.837735	80.774118	-433.347812	-9.369504	80.844149	-32.828436	
253	1.2650	489.588270	1395.492204	-81.207014	470.465435	1402.375529	-393.653216	430.128602	1462.220211	-234.059348	452.517061	1294.387809	-232.422928	536.853692	1137.195943	19.444373	745.006913	941.446914	-40.332591	542.700636	1148.927416	-468.802879	748.318993	925.328285	-426.478292	-105.926633	1215.025228	-240.224260	86.074088	1202.453919	-418.441792	71.801886	1224.083867	-53.598826	86.477726	1123.993379	-386.625471	72.051095	1162.617667	-91.167511	-72.311820	1261.956028	-196.563169	-63.329913	1257.474280	-278.202370	-5.838676	1151.314859	-33.612319	2.713998	1103.549773	-437.710717	111.322936	1064.187887	-5.735074	200.371656	1061.477224	-2.676240	274.757385	1017.592447	-1.521857	210.777187	1093.794491	-18.302915	395.342673	952.799279	-20.661859	409.012154	942.391245	-145.312865	333.624440	797.374701	-11.348585	318.346642	712.169726	-32.522535	260.665269	645.396448	-40.854405	345.097929	704.288618	-58.799826	203.133916	525.953811	-71.494846	226.868066	546.033197	-157.947072	141.924776	473.302273	-115.861256	449.854970	506.782038	-115.355115	334.574586	473.006099	-46.541464	358.280596	494.029115	-161.144188	71.278148	960.387591	-465.963317	132.362321	898.940604	-473.029817	164.147577	917.412135	-469.320648	156.733260	813.336037	-465.125109	236.913565	709.644030	-454.854531	250.326951	700.015052	-331.818556	148.980894	559.580260	-468.058694	137.832084	478.133542	-447.271370	81.427221	407.292304	-433.186667	167.818931	468.228447	-423.636589	24.421228	295.508125	-405.682354	64.442715	306.057062	-318.496484	-45.379040	261.543304	-353.425557	256.744391	199.178182	-358.380135	164.258520	212.101561	-314.175469	134.070655	196.500280	-427.959380	-215.594782	944.458049	-232.356961	-9.841559	80.772704	-433.347084	-9.359159	80.841928	-32.833898	
